<?xml version="1.0" encoding="UTF-8"?><!DOCTYPE svg PUBLIC "-//W3C//DTD SVG 1.1//EN" "http://www.w3.org/Graphics/SVG/1.1/DTD/svg11.dtd"><svg xmlns="http://www.w3.org/2000/svg"><symbol id="icon-alert-circled" viewBox="0 0 512 512"><path d="M476.7 422.2L270.1 72.7c-2.9-5-8.3-8.7-14.1-8.7-5.9 0-11.3 3.7-14.1 8.7L35.3 422.2c-2.8 5-4.8 13-1.9 17.9 2.9 4.9 8.2 7.9 14 7.9h417.1c5.8 0 11.1-3 14-7.9 3-4.9 1-13-1.8-17.9zM288 400h-64v-48h64v48zm0-80h-64V176h64v144z"/></symbol><symbol id="icon-archive" viewBox="0 0 512 512"><path d="M256 307.7L384 192h-80V96h-96.4v96H128zM465.4 297.2l-71.4-55h-42l62 61.8h-50.6c-2.3 0-4.3 1.2-5.4 2.9l-18.4 45.5H172.1l-18.4-45.5c-1-1.8-3.1-2.9-5.4-2.9H97.8l62.2-61.8h-42.2l-71.4 55c-10.6 6.2-15.8 19-14.1 31.6l8.7 66.9c2.3 13.1 9.7 20.3 28.1 20.3h373.8c19.1 0 25.8-7.6 28.1-20.3l8.7-66.9c1.7-12.9-3.7-25.4-14.3-31.6z"/></symbol><symbol id="icon-arrow-down-a" viewBox="0 0 512 512"><path d="M256.5 448.5l192-192h-112v-192h-160v192h-112z"/></symbol><symbol id="icon-arrow-left-a" viewBox="0 0 512 512"><path d="M64.5 256.5l192 192v-112h192v-160h-192v-112z"/></symbol><symbol id="icon-arrow-resize" viewBox="0 0 512 512"><path d="M288 96l49.9 49.9-63.9 63.8-128.1 128.2L96 288v128h128l-49.9-49.9 183.3-183.2 8.7-8.8L416 224V96z"/></symbol><symbol id="icon-arrow-right-a" viewBox="0 0 512 512"><path d="M448.5 256.5l-192-192v112h-192v160h192v112z"/></symbol><symbol id="icon-arrow-up-a" viewBox="0 0 512 512"><path d="M256.5 64.5l-192 192h112v192h160v-192h112z"/></symbol><symbol id="icon-calendar" viewBox="0 0 512 512"><path d="M144 128c17.7 0 32-14.3 32-32V64c0-17.7-14.3-32-32-32s-32 14.3-32 32v32c0 17.7 14.3 32 32 32zM368 128c17.7 0 32-14.3 32-32V64c0-17.7-14.3-32-32-32s-32 14.3-32 32v32c0 17.7 14.3 32 32 32zM472 64h-56v40.7c0 22.5-23.2 39.3-47.2 39.3S320 127.2 320 104.7V64H192v40.7c0 22.5-24 39.3-48 39.3s-48-16.8-48-39.3V64H40c-4.4 0-8 3.6-8 8v400c0 4.4 3.6 8 8 8h432c4.4 0 8-3.6 8-8V72c0-4.4-3.6-8-8-8zm-40 368H80V176h352v256z"/></symbol><symbol id="icon-camera" viewBox="0 0 512 512"><path d="M430.4 147h-67.5l-40.4-40.8s-.2-.2-.3-.2l-.2-.2c-6-6-14.1-9.8-23.3-9.8h-84c-9.8 0-18.5 4.2-24.6 10.9v.1l-39.5 40h-69C63 147 48 161.6 48 180.2v202.1c0 18.6 15 33.7 33.6 33.7h348.8c18.5 0 33.6-15.1 33.6-33.7V180.2c0-18.6-15.1-33.2-33.6-33.2zM256 365.5c-50.9 0-92.4-41.6-92.4-92.6 0-51.1 41.5-92.6 92.4-92.6 51 0 92.4 41.5 92.4 92.6 0 51-41.4 92.6-92.4 92.6zm168.1-165c-7.7 0-14-6.3-14-14.1s6.3-14.1 14-14.1 14 6.3 14 14.1-6.3 14.1-14 14.1zM256 202.9c-38.6 0-69.8 31.3-69.8 70 0 38.6 31.2 70 69.8 70 38.5 0 69.8-31.3 69.8-70s-31.3-70-69.8-70z"/></symbol><symbol id="icon-card" viewBox="0 0 512 512"><path d="M452 96H60c-15.5 0-27.9 12.5-28 28v264c.2 15.5 12.5 28 28 28h392c15.6 0 28-12.7 28-28.3V124.3c0-15.6-12.4-28.3-28-28.3zM77.1 128h357.7c6.9 0 12.1 5.1 13.1 12v20H64v-20.3c1-6.8 6.3-11.7 13.1-11.7zm357.8 256H77.1c-6.9 0-12.1-4.9-13.1-11.7V256h384v116c-1 6.9-6.3 12-13.1 12zM96 304h192v16H96zM96 336h96v16H96zM352 304h64v48h-64z"/></symbol><symbol id="icon-chatbox" viewBox="0 0 512 512"><path d="M124.3 400H277c14.4 0 14.4.1 21.3 5.2S384 464 384 464v-64h3.7c42.2 0 76.3-31.8 76.3-71.4V119.7c0-39.6-34.2-71.7-76.3-71.7H124.3C82.2 48 48 80.1 48 119.7v208.9c0 39.6 34.2 71.4 76.3 71.4z"/></symbol><symbol id="icon-chatboxes" viewBox="0 0 512 512"><path d="M294.1 365.5c-2.6-1.8-7.2-4.5-17.5-4.5H160.5c-34.7 0-64.5-26.1-64.5-59.2V201h-1.8C67.9 201 48 221.5 48 246.5v128.9c0 25 21.4 40.6 47.7 40.6H112v48l53.1-45c1.9-1.4 5.3-3 13.2-3h89.8c23 0 47.4-11.4 51.9-32l-25.9-18.5zM401 48H183.7C149 48 128 74.8 128 107.8V276c0 33.1 28 60 62.7 60h101.1c10.4 0 15 2.3 17.5 4.2L384 400v-64h17c34.8 0 63-26.9 63-59.9V107.8c0-33-28.2-59.8-63-59.8z"/></symbol><symbol id="icon-chatbubble-working" viewBox="0 0 512 512"><path d="M256 449.4c28.9 0 56.4-5.7 81.3-15.9.6-.3 1.1-.5 1.7-.7.1 0 .2 0 .2-.1 3.5-1.3 7.3-2 11.2-2 4.3 0 8.4.8 12.1 2.4l84 30.9-22.1-88.4c0-5.3 1.5-10.3 3.9-14.6.8-1.3 1.6-2.6 2.5-3.7 20.9-31.3 33-68.5 33-108.4C464 137.9 370.9 48 256 48S48 137.9 48 248.7c0 110.9 93.1 200.7 208 200.7zM352 224c17.7 0 32 14.3 32 32s-14.3 32-32 32-32-14.3-32-32 14.3-32 32-32zm-96 0c17.7 0 32 14.3 32 32s-14.3 32-32 32-32-14.3-32-32 14.3-32 32-32zm-96 0c17.7 0 32 14.3 32 32s-14.3 32-32 32-32-14.3-32-32 14.3-32 32-32z"/></symbol><symbol id="icon-checkmark-circled" viewBox="0 0 512 512"><path d="M256 32C132.3 32 32 132.3 32 256s100.3 224 224 224 224-100.3 224-224S379.7 32 256 32zm114.9 149.1L231.8 359.6c-1.1 1.1-2.9 3.5-5.1 3.5-2.3 0-3.8-1.6-5.1-2.9-1.3-1.3-78.9-75.9-78.9-75.9l-1.5-1.5c-.6-.9-1.1-2-1.1-3.2 0-1.2.5-2.3 1.1-3.2.4-.4.7-.7 1.1-1.2 7.7-8.1 23.3-24.5 24.3-25.5 1.3-1.3 2.4-3 4.8-3 2.5 0 4.1 2.1 5.3 3.3 1.2 1.2 45 43.3 45 43.3l111.3-143c1-.8 2.2-1.4 3.5-1.4 1.3 0 2.5.5 3.5 1.3l30.6 24.1c.8 1 1.3 2.2 1.3 3.5.1 1.3-.4 2.4-1 3.3z"/></symbol><symbol id="icon-checkmark" viewBox="0 0 512 512"><path d="M461.6 109.6l-54.9-43.3c-1.7-1.4-3.8-2.4-6.2-2.4-2.4 0-4.6 1-6.3 2.5L194.5 323s-78.5-75.5-80.7-77.7c-2.2-2.2-5.1-5.9-9.5-5.9s-6.4 3.1-8.7 5.4c-1.7 1.8-29.7 31.2-43.5 45.8-.8.9-1.3 1.4-2 2.1-1.2 1.7-2 3.6-2 5.7 0 2.2.8 4 2 5.7l2.8 2.6s139.3 133.8 141.6 136.1c2.3 2.3 5.1 5.2 9.2 5.2 4 0 7.3-4.3 9.2-6.2l249.1-320c1.2-1.7 2-3.6 2-5.8 0-2.5-1-4.6-2.4-6.4z"/></symbol><symbol id="icon-chevron-down" viewBox="0 0 512 512"><path d="M256 298.3l174.2-167.2c4.3-4.2 11.4-4.1 15.8.2l30.6 29.9c4.4 4.3 4.5 11.3.2 15.5L264.1 380.9c-2.2 2.2-5.2 3.2-8.1 3-3 .1-5.9-.9-8.1-3L35.2 176.7c-4.3-4.2-4.2-11.2.2-15.5L66 131.3c4.4-4.3 11.5-4.4 15.8-.2L256 298.3z"/></symbol><symbol id="icon-chevron-left" viewBox="0 0 512 512"><path d="M213.7 256L380.9 81.9c4.2-4.3 4.1-11.4-.2-15.8l-29.9-30.6c-4.3-4.4-11.3-4.5-15.5-.2L131.1 247.9c-2.2 2.2-3.2 5.2-3 8.1-.1 3 .9 5.9 3 8.1l204.2 212.7c4.2 4.3 11.2 4.2 15.5-.2l29.9-30.6c4.3-4.4 4.4-11.5.2-15.8L213.7 256z"/></symbol><symbol id="icon-chevron-right" viewBox="0 0 512 512"><path d="M298.3 256L131.1 81.9c-4.2-4.3-4.1-11.4.2-15.8l29.9-30.6c4.3-4.4 11.3-4.5 15.5-.2L380.9 248c2.2 2.2 3.2 5.2 3 8.1.1 3-.9 5.9-3 8.1L176.7 476.8c-4.2 4.3-11.2 4.2-15.5-.2L131.3 446c-4.3-4.4-4.4-11.5-.2-15.8L298.3 256z"/></symbol><symbol id="icon-chevron-up" viewBox="0 0 512 512"><path d="M256 213.7l174.2 167.2c4.3 4.2 11.4 4.1 15.8-.2l30.6-29.9c4.4-4.3 4.5-11.3.2-15.5L264.1 131.1c-2.2-2.2-5.2-3.2-8.1-3-3-.1-5.9.9-8.1 3L35.2 335.3c-4.3 4.2-4.2 11.2.2 15.5L66 380.7c4.4 4.3 11.5 4.4 15.8.2L256 213.7z"/></symbol><symbol id="icon-clipboard" viewBox="0 0 512 512"><path d="M160 160h192c-1.7-20-9.7-35.2-27.9-40.1-.4-.1-.9-.3-1.3-.4-12-3.4-20.8-7.5-20.8-20.7V78.2c0-25.5-20.5-46.3-46-46.3s-46 20.7-46 46.3v20.6c0 13.1-8.8 17.2-20.8 20.6-.4.1-.9.4-1.4.5-18.2 4.9-25.9 20.1-27.8 40.1zm96-95.6c7.6 0 13.8 6.2 13.8 13.8 0 7.7-6.2 13.8-13.8 13.8-7.6 0-13.8-6.2-13.8-13.8 0-7.6 6.2-13.8 13.8-13.8zM404.6 63H331v14.5c0 10.6 8.7 18.5 19 18.5h37.2c6.7 0 12.1 5.7 12.4 12.5l.1 327.2c-.3 6.4-5.3 11.6-11.5 12.1l-264.4.1c-6.2-.5-11.1-5.7-11.5-12.1l-.1-327.3c.3-6.8 5.9-12.5 12.5-12.5H162c10.3 0 19-7.9 19-18.5V63h-73.6C92.3 63 80 76.1 80 91.6V452c0 15.5 12.3 28 27.4 28h297.2c15.1 0 27.4-12.5 27.4-28V91.6c0-15.5-12.3-28.6-27.4-28.6zM144 192h112v16H144zM144 288h160v16H144zM144 384h129v16H144zM144 336h176v16H144zM144 240h208v16H144z"/></symbol><symbol id="icon-clock" viewBox="0 0 512 512"><path d="M256 32C132.3 32 32 132.3 32 256s100.3 224 224 224 224-100.3 224-224S379.7 32 256 32zm169 132.7l-5-8.7c1.7 2.8 3.4 5.7 5 8.7zM356 92l-8.6-5c2.9 1.6 5.8 3.3 8.6 5zm-191.1-5.1l-9.1 5.3c3-1.9 6-3.7 9.1-5.3zm-72.8 69l-5.2 9c1.7-3.1 3.4-6.1 5.2-9zm-5.2 191.2l5.3 9.2c-1.9-3.1-3.7-6.1-5.3-9.2zm68.8 72.7l9.3 5.4c-3.1-1.7-6.2-3.5-9.3-5.4zm191.6 5.2l8.8-5.1c-2.9 1.8-5.9 3.5-8.8 5.1zm44.5-33.2c-10.1 10.1-21.1 18.9-32.9 26.4L343 390.6l-13.9 8 16 27.6c-24.8 13-52.4 20.5-81 21.6V416h-16v31.8c-28.7-1.2-56.2-8.6-81-21.6l16-27.6-13.9-8-15.9 27.6c-11.8-7.5-22.8-16.3-32.9-26.4-10.1-10.1-18.9-21.1-26.4-32.9l27.6-15.9-8-13.9-27.6 16c-13-24.8-20.5-52.4-21.6-81H96v-16H64.2c1.2-28.7 8.6-56.2 21.6-81l27.6 16 8-13.9-27.6-15.9c7.5-11.8 16.3-22.8 26.4-32.9 10.1-10.1 21.1-18.9 32.9-26.4l15.9 27.6 13.9-8-16-27.6c24.8-13 52.4-20.5 81-21.6V96h16V64.2c28.7 1.2 56.2 8.6 81 21.6l-16 27.6 13.9 8 15.9-27.6c11.8 7.5 22.8 16.3 32.9 26.4 10.1 10.1 18.9 21.1 26.4 32.9L390.4 169l8 13.9 27.6-16c13 24.8 20.5 52.4 21.6 81H416v16h31.8c-1.2 28.7-8.6 56.2-21.6 81l-27.6-16-8 13.9 27.6 15.9c-7.5 11.9-16.3 23-26.4 33.1zm33.3-44.6c-1.6 3-3.4 6-5.2 8.9l5.2-8.9zM400 249H287.2c-2-8.8-7.6-16.3-15.2-20.7V144h-32v84.3c-9.6 5.5-16 15.9-16 27.7 0 7.4 2.5 14.2 6.8 19.7l-70.4 70.7 5.7 5.7 70.4-70.7c5.4 4.2 12.2 6.7 19.6 6.7 14.5 0 26.8-9.7 30.7-23H400V249z"/></symbol><symbol id="icon-close-circled" viewBox="0 0 512 512"><path d="M256 33C132.3 33 32 133.3 32 257s100.3 224 224 224 224-100.3 224-224S379.7 33 256 33zm108.3 299.5c1.5 1.5 2.3 3.5 2.3 5.6 0 2.1-.8 4.2-2.3 5.6l-21.6 21.7c-1.6 1.6-3.6 2.3-5.6 2.3-2 0-4.1-.8-5.6-2.3L256 289.8l-75.4 75.7c-1.5 1.6-3.6 2.3-5.6 2.3-2 0-4.1-.8-5.6-2.3l-21.6-21.7c-1.5-1.5-2.3-3.5-2.3-5.6 0-2.1.8-4.2 2.3-5.6l75.7-76-75.9-75c-3.1-3.1-3.1-8.2 0-11.3l21.6-21.7c1.5-1.5 3.5-2.3 5.6-2.3 2.1 0 4.1.8 5.6 2.3l75.7 74.7 75.7-74.7c1.5-1.5 3.5-2.3 5.6-2.3 2.1 0 4.1.8 5.6 2.3l21.6 21.7c3.1 3.1 3.1 8.2 0 11.3l-75.9 75 75.6 75.9z"/></symbol><symbol id="icon-close" viewBox="0 0 512 512"><path d="M443.6 387.1L312.4 255.4l131.5-130c5.4-5.4 5.4-14.2 0-19.6l-37.4-37.6c-2.6-2.6-6.1-4-9.8-4-3.7 0-7.2 1.5-9.8 4L256 197.8 124.9 68.3c-2.6-2.6-6.1-4-9.8-4-3.7 0-7.2 1.5-9.8 4L68 105.9c-5.4 5.4-5.4 14.2 0 19.6l131.5 130L68.4 387.1c-2.6 2.6-4.1 6.1-4.1 9.8 0 3.7 1.4 7.2 4.1 9.8l37.4 37.6c2.7 2.7 6.2 4.1 9.8 4.1 3.5 0 7.1-1.3 9.8-4.1L256 313.1l130.7 131.1c2.7 2.7 6.2 4.1 9.8 4.1 3.5 0 7.1-1.3 9.8-4.1l37.4-37.6c2.6-2.6 4.1-6.1 4.1-9.8-.1-3.6-1.6-7.1-4.2-9.7z"/></symbol><symbol id="icon-code" viewBox="0 0 512 512"><circle cx="184.166" cy="256.166" r="24"/><circle cx="256.166" cy="256.166" r="24"/><circle cx="328.166" cy="256.166" r="24"/><path d="M168 392c-6.143 0-12.285-2.344-16.97-7.03l-112-112c-9.374-9.372-9.374-24.568 0-33.94l112-112c9.372-9.372 24.567-9.372 33.94 0 9.37 9.372 9.37 24.568 0 33.94L89.94 256l95.03 95.03c9.37 9.37 9.37 24.567 0 33.94-4.687 4.686-10.827 7.03-16.97 7.03zM344 392c6.143 0 12.285-2.344 16.97-7.03l112-112c9.374-9.372 9.374-24.568 0-33.94l-112-112c-9.372-9.372-24.567-9.372-33.94 0-9.37 9.372-9.37 24.568 0 33.94L422.06 256l-95.03 95.03c-9.37 9.37-9.37 24.567 0 33.94 4.687 4.686 10.827 7.03 16.97 7.03z"/></symbol><symbol id="icon-compose" viewBox="0 0 512 512"><path d="M442.8 99.6l-30.4-30.4c-7-6.9-18.2-6.9-25.1 0L355.5 101l55.5 55.5 31.8-31.7c6.9-7.1 6.9-18.3 0-25.2zM346.1 110.5L174.1 288 160 352l64-14.1 176.6-173zM384 256v150c0 5.1-3.9 10.1-9.2 10.1s-269-.1-269-.1c-5.6 0-9.8-5.4-9.8-10V138c0-5 4.7-10 10.6-10H256l32-32H87.4c-13 0-23.4 10.3-23.4 23.3v305.3c0 12.9 10.5 23.4 23.4 23.4h305.3c12.9 0 23.3-10.5 23.3-23.4V224l-32 32z"/></symbol><symbol id="icon-connection-bars" viewBox="0 0 512 512"><path d="M80 352h64v64H80zM176 288h64v128h-64zM272 192h64v224h-64zM368 96h64v320h-64z"/></symbol><symbol id="icon-document-text" viewBox="0 0 512 512"><path d="M398.6 169.2c-.9-2.2-2-4.3-3.5-6.1l-83.8-91.7c-1.9-2.1-4.2-3.6-6.7-4.9-2.9-1.5-6.1-2.1-9.5-2.1H135.2c-12.4 0-22.7 10.6-22.7 23.9v335.2c0 13.4 10.3 24.9 22.7 24.9h243.1c12.4 0 22.2-11.5 22.2-24.9V179.4c0-3.6-.5-7.1-1.9-10.2zm-238.1 9.4c0-1.5 1.8-2.1 3.4-2.1h70.8c1.6 0 2.8.6 2.8 2.1v10.8c0 1.4-1.1 3.1-2.8 3.1h-70.8c-1.6 0-3.4-1.7-3.4-3.1v-10.8zm0 128c0-1.5 1.8-2.1 3.4-2.1h122.2c1.6 0 2.4.6 2.4 2.1v10.8c0 1.4-.7 3.1-2.4 3.1H163.9c-1.6 0-3.4-1.7-3.4-3.1v-10.8zm160 74.8c0 1.4-.7 3.1-2.4 3.1H163.9c-1.6 0-3.4-1.7-3.4-3.1v-10.8c0-1.5 1.8-2.1 3.4-2.1h154.2c1.6 0 2.4.6 2.4 2.1v10.8zm32-128c0 1.4-.7 3.1-2.4 3.1H163.9c-1.6 0-3.4-1.7-3.4-3.1v-10.8c0-1.5 1.8-2.1 3.4-2.1h186.2c1.6 0 2.4.6 2.4 2.1v10.8zm-46.9-75.9c-5.6 0-11.1-5.2-11.1-11.3v-66l71.2 77.3h-60.1z"/></symbol><symbol id="icon-document" viewBox="0 0 512 512"><path d="M399.3 168.9c-.7-2.9-2-5-3.5-6.8l-83.7-91.7c-1.9-2.1-4.1-3.1-6.6-4.4-2.9-1.5-6.1-1.6-9.4-1.6H136.2c-12.4 0-23.7 9.6-23.7 22.9v335.2c0 13.4 11.3 25.9 23.7 25.9h243.1c12.4 0 21.2-12.5 21.2-25.9V178.4c0-3.6-.4-6.2-1.2-9.5zM305.5 111l58 63.5h-58V111zm-161 305.5v-320h129v81.7c0 14.8 13.4 28.3 28.1 28.3h66.9v210h-224z"/></symbol><symbol id="icon-earth" viewBox="0 0 512 512"><path d="M340.5 127c.6-.3 1.3-.6 1.9-.9.6-.3 1.3-.3 1.3-.3s.8 0 1 .8c.5 2.2.8 4 1.1 6.3.2 1.2.7 2.3 1.5 3.2 1.2 1.4 2.7 1.9 4.6 1.7 1.2-.1 2.4-.6 3.5-1.2 1.7-.9 3.2-2.1 4.7-3.4-.2-.6-.3-1.2-.4-1.8-1.2-4.1-3.2-7.9-6.2-11-1.4-1.4-2.9-2.6-4.8-3.4-.7-.3-1.3-.7-1.8-1.3-.5-.5-.9-1.1-1.3-1.6s-.9-1-1.4-1.4c-.2-.2-.6-.4-.9-.5-1.3-.2-2.4.2-3.3 1.1-.4.5-.5 1-.2 1.6.5 1 .7 2.1 1 3.2.1.2.1.5.1.8-.4.3-.8.7-1.3 1-.4.3-.8.6-1.3 1-.5.3-.9.7-1.3 1-.4.3-.9.6-1.2 1-.7.6 2.2 5.1 3.4 4.7.7-.3.7-.3 1.3-.6zM284.9 96.7c1.2 1.1 2.5 2 4.1 2.4 2.5.7 5 1.2 7.6 1.5h.9c.1-.3.2-.5.2-.7.3-1.1.7-2.2 1-3.3.1-.5.3-.9.8-1.2.3-.2.5-.4.8-.6 1.5-1.5 1.5-2.9 0-4.4-1-1-2.2-1.7-3.5-2.2-.3.1-.5.1-.7.2-3.5 1.3-6.9 2.6-10.4 3.9-.2.1-.4.1-.6.2-1.1.5-1.6 1.9-1.1 3 .3.5.6.9.9 1.2zM166.3 177.9c.6 0 1.3-.2 1.8-.4.7-.3.9-1 .5-1.6-.2-.2-.4-.5-.6-.6-.4-.2-.8-.4-1.2-.5-.7-.2-1.4-.3-2.1-.4-1.5-.2-3-.3-4.5-.4-2.2-.1-4.2-.8-5.9-2.2l-1.2-.9c-.3-.3-.7-.5-1.1-.7-1-.6-2.1-1-3.3-.9-.7.1-1.5.1-2.2.3-.8.2-1.6.5-2.3 1-1 .8-2.2 3-2.2 3.4s.2.8.5.9c.6.2 1.2.5 1.8.6.9.2 1.9.3 2.8.5 4.5.8 9.1 1.6 13.7 2 1.9-.1 3.7 0 5.5-.1zM176.3 185.4c-1-.6-2-1.3-2.9-1.9-.3-.2-.8-.3-1-.3s-.5.1-.8.2c-2.5 1.1-5 2.3-7.4 3.4l-1.8.9c-.2.1-.5.4-.7.6-.2.2-.1.5.1.6.3.1.7.3 1 .3 1.2.2 2.5.1 3.7.1 1.1 0 2.3-.1 3.4-.1 2.5 0 4.8.5 7 1.7.3.1.6.3.9.4.3.1.5-.1.7-.3.1-.1.1-.2.2-.4.4-1.3.7-2.9.5-3.4s-.6-.9-1.2-1.1c-.6-.1-1.2-.4-1.7-.7zM256 32C132.3 32 32 132.3 32 256s100.3 224 224 224 224-100.3 224-224S379.7 32 256 32zM120.2 391.8C84 355.5 64 307.3 64 256c0-36.2 10-70.9 28.6-100.9.1.1.1.3.2.3.2.1.3.3.4.4.2.1.3.2.5.3-.1.6-.1 1.2-.2 1.8-.4 3.3-.9 6.5-1.3 9.8-.3 2 .1 3.9.9 5.7.6 1.4 1.5 2.7 2.6 3.9 1.3 1.5 2.8 2.7 4.4 3.8 2.7 1.9 5.6 3.3 8.6 4.5.3.1.5.2.9.3-.1 1.4-.3 2.7-.5 4-.2 1.3-.5 2-.4 3.1.1.7.3 1.4.6 1.6 1.6 1.4 3.2 2.9 4.9 4.3.5.4 1.1 2.4 1.2 3 .8 3.5 1.3 5.3 2.2 8.8.1.6.4 1.1.9 1.4 1.8 1.3 3.5 2.7 5.2 4 .3.2.7.5 1 .6 1.7.9 2.7 2.2 3.2 4 .3 1.1.4 2.2.4 3.4 0 2.2-.5 4.2-1.1 6.3-.4 1.5-1.1 2.9-1.9 4.1-1.3 1.8-2.5 3.6-3.8 5.4-1.6 2.2-3.2 4.5-4.7 6.7-.6.8-1.1 1.8-1.6 2.6-1.2 1.9-1.7 3.9-2 6.1-.3 2.5-.4 4.9-.2 7.4.2 2.3.6 4.5 1.4 6.6.2.5.2.9.1 1.5-.5 2.3-.2 4.4.7 6.5.5 1.3 1.2 2.5 2 3.6.9 1.2 1.8 2.3 2.7 3.5 1.5 1.8 2.9 3.5 4.3 5.4 3 4 6.7 7.2 10.8 9.9.3.2.6.4 1 .6-.1.3-.1.5-.2.8-.6 1.8-1 3.7-1 5.7-.1 2.8.5 5.4 2.1 7.7.7 1 1.2 1.5 2.7 2.7.1.4 0 .8-.1 1.3-.4 3.2-.9 6.4-1.3 9.6-.2 1.7-.4 3.4-.7 5.1-.1.7-.2 1.4-.4 2-.7 2.4-1.2 4.8-1.5 7.2-.1 1.6-.2 3.1.1 4.7.2 1.3.7 2.6 1.7 3.6l-.3 2.4c-.3 2.6-.7 5.1-1 7.7-.2 1.2-.4 2.3-.6 3.4-.4 2.6-.6 5.2-.5 7.8.1 1.4.2 2.7.6 4 .3 1.1.7 2.2 1.4 3.1.2.2.3.5.3.8.5 3.4.9 6.7 1.4 10.1.3 2.1.6 4.3.9 6.4.1.4.2.7.3 1 2.4 4.1 3.4 9.5 6.5 13.1 1.9 2.2 4.7 4.8 7 6.5.8.6 2.1 2.1 3.5 3.5-13.1-7.9-25.4-17.5-36.7-28.7zm314.4-194.7c-1.8-.4-3.6-.6-5.4-.7-3-.2-6.1-.3-9.1-.1h-.6c-.6.1-1.1-.1-1.5-.5-4.6-3.6-9.2-7.1-13.8-10.7-.6-.4-1.1-.8-1.7-1.3-.7-.5-1.4-.9-2.2-1.2-1.8-.6-3.6-.9-5.5-1.2-2.8-.3-5.5-.3-8.3-.2-.7 0-1.3-.1-1.9-.3-2.5-1-5.2-1.7-7.9-2.1-2.5-.4-5-.5-7.6-.4-2.8.1-5.6.5-8.3 1.4l-10.8 3.3c-.6.2-1.1.5-1.5 1-2.5 3-5 5.9-7.4 8.9-.4.4-.8.7-1.3.8-6.8 1.6-11.8 5.5-15 11.8-.3.7-.6 1.3-.9 2-.2.4-.3.8-.4 1.2-.2.6-.1 1.2.2 1.8.1.1.1.2.2.4.5.9.7 1.8.7 2.8.1 1.6-.1 3.2-.3 4.8-.3 2-.7 4-1.3 5.9-1.5 4.8-2.6 9.6-3.5 14.5-.7 3.7-1.2 7.5-1.1 11.3 0 1.8.2 3.5.6 5.2.1.4.3.9.4 1.3.1.4.4.7.7 1 3.4 3.3 6.7 6.6 10.2 9.7 3.1 2.8 6.3 5.4 9.8 7.7 2.6 1.7 5.4 3.2 8.3 4.3 3.2 1.2 6.5 1.7 9.9 1.4 3.5-.3 7-.5 10.6-.6 2.5-.1 5 0 7.5.5.8.2 1.6.4 2.4.8.9.4 1.7 1 2.3 1.9.1.2.2.3.4.5.6.7 1.4 1 2.3.8.5-.1 1-.3 1.4-.5.5-.2 1-.4 1.5-.7.4-.2.8-.3 1.2-.5 1-.3 1.7 0 2.1 1 .2.6.4 1.2.5 1.8.6 2.5.9 5 .5 7.6-.2 1.8-.7 3.5-1.3 5.2-.6 1.7-1.3 3.3-1.9 5-.5 1.2-.9 2.5-1.3 3.8-1.1 3.4-1.1 6.9-.1 10.3.5 1.8 1.2 3.5 1.8 5.3.7 1.8 1.3 3.6 1.7 5.5.7 3.1.4 6.1-.8 9-.8 2.1-1.9 3.9-3.4 5.6l-3.3 3.6c-.4.4-.8.9-1.2 1.3-1.7 1.9-3.2 3.9-4.3 6.2-.9 1.8-1.8 3.7-2.5 5.6-1 2.8-1.2 5.6-.6 8.5.5 2.2 1 4.4 1.4 6.6.3 1.4.5 2.8.7 4.1.1.7.1 1.5-.1 2.2-.3 1.2-.7 2.3-1.2 3.5-1.2 3.1-2.7 6-4.1 9-1.6 3.3-3.1 6.6-4.6 9.9-.7 1.6-1.3 3.3-1.8 5-.2.7-.3 1.5-.4 2.3-.1 1 .6 2.2 1.6 2.8-31.8 22-69.5 33.9-109 33.9-32.7 0-64.1-8.1-91.9-23.4 0-.3-.1-.6-.1-.9-1.2-6.5-3.6-19-4.8-25.4-.1-.7-.2-1.5-.2-1.9s.1-1.4.3-1.8c1-2.1 1.7-3.8 2.7-5.9.9-1.9 1.7-3.8 2.6-5.7.3-.6.7-1.2 1.2-1.7 2.3-2.2 4.5-4.4 6.7-6.5.3-.3.7-.6 1.1-.9 4.3-2.9 8.7-5.8 13-8.7.7-.5 1.2-1 1.7-1.7 1.9-2.9 3.9-5.8 5.8-8.8.8-1.3 1.5-2.6 2.3-3.9.2-.3.4-.6.6-.8 2.6-3.3 5.2-6.6 7.7-9.9.4-.5.8-.8 1.5-.9 4.2-.9 8.3-2.2 12.1-4.1l2.7-1.5c.4-.2.7-.5.9-.9 2.8-3.8 5.5-7.7 8.3-11.5.3-.4.5-.9.7-1.3 1.9-5.2 3.9-10.3 5.8-15.5.2-.6.5-1 1-1.3 5.5-3.6 8.8-8.6 9.8-15.1.2-1.5.3-2.9.1-4.4-.2-1.5-1-2.9-1.6-3.6-2.6-3.2-4.8-4.6-8.3-6.7-4.5-2.6-9.2-4.4-14.3-5.6-1.2-.3-2.9-.8-3.3-1s-.7-.4-.8-.8c-1.1-2.2-2.2-4.4-3.6-6.4-1.2-1.8-2.5-3.5-4.1-5-.3-.3-.4-.6-.5-1-.4-1.3-.8-2.7-1.3-4-1.7-4.3-4.2-8.1-7.4-11.4-5.3-5.4-11.7-9.2-18.9-11.6-.6-.2-1-.5-1.4-1-2.7-3.8-6.3-6.4-10.5-8.1-1.5-.6-3-1.1-4.6-1.4-.4-.1-.8-.2-1.1-.4-2.8-1.4-5.7-2.8-8.5-4.2-.5-.2-.9-.5-1.2-.9-.7-.8-1.6-1.4-2.5-2-1.1-.6-2.2-.9-3.4-.9-1.4.1-2.6.7-3.6 1.7-.2.2-.4.5-.6.8-.7 1.2-1.4 2.4-2.4 3.4-1.5 1.5-3.2 2.5-5.4 2.8-1.4.2-2.9 0-4.2-.4-1.8-.5-3.4-1.4-5-2.5-.4-.3-.8-.5-1.3-.8-2.9-1.7-4.7-4.2-5.2-7.5-.1-.7-.1-1.4-.2-2.1-.1-3.1.1-6.3.4-9.4.1-.8.2-1.1.2-1.6 0-.4-.2-1.1-.7-1.3-.7-.3-1.3-.7-1.8-1.2-.4-.3-.7-.7-1-1.1-.6-.9.2-1.5.7-2.5.4-.8 0-1.8.8-2.3.8-.5 1.7-1.1 2.5-1.7.9-.7 1.7-1.4 2.5-2.3.4-.5.7-1 .9-1.6.4-1.2.3-2.3-.5-3.3-.7-.9-1-1.6-2.1-2.1-.3-.1-1.2 0-1.5.1-1.2.3-2.3.6-3.5.8-1.5.3-3.1.3-4.7-.1-2-.5-3.3-1.7-4.1-3.6-.5-1.4-.7-2.8-.6-4.3.1-2.9.7-5.7 1.6-8.4.1-.3.2-.6.4-.9 4.6-6.5 10.6-11.1 18.3-13.4 1.9-.5 3.7-.9 5.7-1.1.8-.1 1.5 0 2.3.1 2.2.2 4.3.6 6.3 1.4 1.2.4 2.2 1 3.2 1.8 2.1 1.6 3.3 3.6 3.5 6.2.1 1.7.6 3.3 1.2 4.8.3 1 .7 1.9 1.2 2.9.3.6.6 1.1 1 1.6.3.4.7.7 1.1 1 .7.5 1.5.4 2.3.1.4-.2.7-.5.8-1 .1-.9.3-1.8.4-2.8.6-3.7 1.2-7.4 1.7-11 .3-1.9.6-3.7.9-5.6 0-.2.1-.4.1-.6 3.7-5.5 16.7-6.4 22-12.1.2.1.3.2.5.4.6.5 1.2.7 1.9.7 1 .1 2-.1 3-.3 1.4-.4 2.8-.9 4.1-1.6 1.1-.5 2.1-1.1 3.1-1.7.5-.3.9-.5 1.5-.6l9.3-2.7c.6-.2 1.2-.2 1.8-.1 2.6.3 5.2.3 7.9 0 1.8-.2 3.5-.5 5.2-1l.9-.3c.4-.1.6-.3.8-.7.4-.8.9-1.5 1.4-2.2.4-.6.9-1.1 1.5-1.6.4-.3.8-.6 1.3-.8.9-.4 1.9-.4 2.9-.1.8.3 1.4.7 2 1.3.5.5 1 .8 1.6 1.1.8.4 1.7.7 2.6.9 2 .4 3.8-.1 5.2-1.5.8-.7 1.3-1.6 1.8-2.5.8-1.5 1.3-3 1.7-4.7.5-2 .8-4 1-6.1V103c-.2.1-.5.1-.6.2-.9.4-1.7.7-2.6.9-.3 0-.5.1-.8 0-.6-.1-.9-.5-.8-1.1.1-.5.2-1 .5-1.4.5-.9 1-1.7 1.5-2.6.6-1 1.2-1.9 1.7-2.9.3-.6.5-1.3.5-2 .1-.9-.2-1.7-.9-2.3-.4-.4-.9-.8-1.4-1.1-.6-.4-1.2-.8-1.8-1.3-.9-.7-1.7-1.5-2.3-2.6-.1-.1-.2-.3-.3-.4-1.1-1.6-2.6-2.1-4.4-1.6-1.4.4-2.6 1.2-3.7 2.3l-1.7 1.7c-.7.6-1.5 1.2-2.3 1.6-1.4.7-2.9.7-4.3 0-.4-.2-.7-.4-1.1-.6-.2-.1-.5-.2-.7-.3-.6-.2-1-.1-1.4.5-.2.3-.4.6-.5 1-.5 1.5-1.5 2.7-2.6 3.8-1.4 1.3-2.9 2.3-4.6 3.2-1.3.7-2.6 1.2-4 1.8-.5.2-1.1.3-1.7.3-1.6-.1-2.7-.8-3.4-2.3-.4-1-.6-2-.6-3-.1-1.9.1-3.7.5-5.6.1-.7.3-1.3.4-1.9.1-.5.3-.8.7-1 1.9-1.2 3.7-2.4 5.5-3.6.2-.1.4-.3.7-.4 1.3-.8 2.5-1.7 3.6-2.7.9-.9 2-1.7 3.1-2.4.5-.3 1-.5 1.5-.7.2-.1.5-.1.8-.2.8-.1 1.4.2 1.8.9.8 1.6 2.2 1.9 3.8 1.8.8 0 1.7-.2 2.5-.4.9-.2 1.7-.6 2.5-.9.4-.2.8-.3 1.3-.3 2-.1 3.9-.1 5.9-.2.3 0 .6 0 .9.3 1.6 1.1 3.1 2.2 4.5 3.5.9.9 1.2 1.3 1.7 2.4.2-.2.5-.4.7-.6 1.7-1.5 3.3-3.1 5-4.6.4-.3.8-.7 1.1-1 1.7-1.3 3.3-2.5 5-3.8.3-.2.5-.4.8-.6.1-.4-.2-.7-.3-1-1.1-2.5-2.3-4.9-3.5-7.4l-.3-.6h3.4c1.7 0 3.3 0 5 .1.2.6.5 1.2.7 1.8.1.3.2.6 0 1-.3.9-.7 1.7-1 2.6l-3.6 9.3c-.2.5-.3.9-.2 1.5.4 4 1.1 7.8 2.6 11.6.9 2.2 2 4.4 3.5 6.3 1.4 1.8 3.1 3.3 5.2 4.3.2.1.5.2.7.3h.3c.2-.2.4-.5.6-.7 2.8-3.5 5.7-7 8.5-10.4 1.9-2.3 3.9-4.5 5.9-6.8.2-.2.4-.4.5-.6 1-1.1 1-1.1 2.5-1.4 2.1-.4 4.2-.7 6.3-1.1 1.2-.2.9 0 1.5-1.1l6.6-10.5c.1-.2.3-.4.4-.6 20.3 4.9 39.5 13.2 57.1 24.4-3.2.4-6.4.6-9.5 1-.1.2-.1.4-.1.6-.4 3.9-.4 7.8.2 11.7.3 1.6.7 3.3 1.4 4.8.5 1.1 1.1 2 2 2.8.4.4.8.6 1.4.7 1.7.2 3.3.4 4.9.7.4.1.8.1 1.3.2 1.3 2.1 2.5 4.2 3.8 6.3 3 .5 6.1.8 9.1 1.3 0 .8-.2 1.5-.2 2.2-.2 1.7-.5 3.4-.7 5-.1.5 0 1 .2 1.6.7 1.5 1.3 3.1 2 4.6.1.3.2.5.3.8-.2.2-.3.5-.5.7-1.6 2.1-3.2 4.1-4.7 6.2-.2.3-.5.6-.8.8-2.4 1.5-4.8 3-7.1 4.5-.9-.1-1.8-.2-2.6-.2-1.8 0-3.6.3-5.4.8-1.2.3-2.3.8-3.5 1.2-.3.1-.6.2-.8.4-1.4.8-2.8 1.6-4.3 2.4-.1.1-.3.2-.4.3l.3.6c1.9 3.4 3.7 6.8 5.6 10.1 1.1 2 2.6 3.8 4.3 5.4 1.3 1.2 2.7 2.1 4.3 2.7 2 .8 4.1.9 6.2.4 2.8-.7 5.7-1.4 8.5-2.2.3-.1.5-.2.8-.2.1-.5.1-.9.2-1.4.3-2.5.5-5 .9-7.5.2-1.5.5-3 .8-4.4.1-.5.3-.9.5-1.4 0-.1.2-.2.3-.2.1 0 .3.1.3.2.2.8 2.7-1.5 2.7-1.5s6.2-4.4 23.6 16 27.1 14.4 27.1 14.4c1.1 1.3 2 2.8 2.7 4.3.9 2 1.5 4.1 1.8 6.2v.8c-1.2-.3-1.5-.4-1.9-.4z"/></symbol><symbol id="icon-edit" viewBox="0 0 512 512"><style type="text/css"><![CDATA[
	.st0{fill:#010101;}
]]></style><path class="st0" d="M163.042 439.596l-90.58-90.58L322.777 98.705l90.58 90.58zM471.7 88.4l-48.1-48.1c-11.7-11.7-31.6-10.9-44.3 1.8l-45.2 45.2 90.6 90.6 45.2-45.2c12.7-12.7 13.5-32.6 1.8-44.3zM46.4 431.1l34.5 34.5 67.8-17.6L64 363.3zM32 480l32-9.3L41.3 448z"/></symbol><symbol id="icon-email" viewBox="0 0 512 512"><path d="M67 148.7c11 5.8 163.8 89.1 169.5 92.1 5.7 3 11.5 4.4 20.5 4.4s14.8-1.4 20.5-4.4c5.7-3 158.5-86.3 169.5-92.1 4.1-2.1 11-5.9 12.5-10.2 2.6-7.6-.2-10.5-11.3-10.5H65.8c-11.1 0-13.9 3-11.3 10.5 1.5 4.4 8.4 8.1 12.5 10.2zM455.7 153.2c-8.2 4.2-81.8 56.6-130.5 88.1l82.2 92.5c2 2 2.9 4.4 1.8 5.6-1.2 1.1-3.8.5-5.9-1.4l-98.6-83.2c-14.9 9.6-25.4 16.2-27.2 17.2-7.7 3.9-13.1 4.4-20.5 4.4s-12.8-.5-20.5-4.4c-1.9-1-12.3-7.6-27.2-17.2L110.7 338c-2 2-4.7 2.6-5.9 1.4-1.2-1.1-.3-3.6 1.7-5.6l82.1-92.5c-48.7-31.5-123.1-83.9-131.3-88.1-8.8-4.5-9.3.8-9.3 4.9v205c0 9.3 13.7 20.9 23.5 20.9h371c9.8 0 21.5-11.7 21.5-20.9v-205c0-4.2.6-9.4-8.3-4.9z"/></symbol><symbol id="icon-flash" viewBox="0 0 512 512"><path d="M96 288h147l-51.1 192L416 224H269l51-192z"/></symbol><symbol id="icon-folder" viewBox="0 0 512 512"><path d="M430.1 192H81.9c-17.7 0-18.6 9.2-17.6 20.5l13 183c.9 11.2 3.5 20.5 21.1 20.5h316.2c18 0 20.1-9.2 21.1-20.5l12.1-185.3c.9-11.2 0-18.2-17.7-18.2zM426.2 143.3c-.5-12.4-4.5-15.3-15.1-15.3H267.9c-21.8 0-24.4.3-40.9-17.4-13.7-14.8-8.3-14.6-36.6-14.6h-75.3c-17.4 0-23.6-1.5-25.2 16.6-1.5 16.7-5 57.2-5.5 63.4h343.4l-1.6-32.7z"/></symbol><symbol id="icon-gear-a" viewBox="0 0 512 512"><path d="M411.1 256c0-23.9 14.8-42.8 36.9-55.8-4-13.3-9.3-26.2-15.8-38.2-24.9 6.5-45-3.2-62-20.2-16.9-16.9-22.1-37.1-15.6-62-12-6.5-24.8-11.8-38.2-15.8-13 22.2-36.4 36.9-60.4 36.9-23.9 0-47.4-14.7-60.4-36.9-13.4 4-26.2 9.3-38.2 15.8 6.5 24.9 1.3 45-15.6 62-16.9 16.9-37.1 26.7-61.9 20.2-6.6 12-11.9 24.8-15.9 38.2 22.2 13 37 31.9 37 55.8s-14.8 47.4-37 60.4c4 13.4 9.3 26.2 15.8 38.2 24.9-6.5 45-1.3 61.9 15.6 17 16.9 22.1 37.1 15.6 62 12.1 6.5 24.8 11.8 38.2 15.8 13-22.2 36.5-36.9 60.4-36.9s47.4 14.7 60.4 36.9c13.4-4 26.2-9.3 38.2-15.8-6.5-24.9-1.3-45 15.6-62 16.9-16.9 37.1-26.7 62-20.2 6.5-12.1 11.8-24.9 15.8-38.2-22.1-13-36.8-31.9-36.8-55.8zM256 354.3c-54.2 0-98.3-44-98.3-98.3s44-98.3 98.3-98.3 98.3 44 98.3 98.3-44 98.3-98.3 98.3z"/></symbol><symbol id="icon-grid" viewBox="0 0 512 512"><path d="M160 153.3c0 3.7-3 6.7-6.7 6.7h-50.5c-3.7 0-6.7-3-6.7-6.7v-50.5c0-3.7 3-6.7 6.7-6.7h50.5c3.7 0 6.7 3 6.7 6.7v50.5zM288 153.3c0 3.7-3 6.7-6.7 6.7h-50.5c-3.7 0-6.7-3-6.7-6.7v-50.5c0-3.7 3-6.7 6.7-6.7h50.5c3.7 0 6.7 3 6.7 6.7v50.5zM416 153.3c0 3.7-3 6.7-6.7 6.7h-50.5c-3.7 0-6.7-3-6.7-6.7v-50.5c0-3.7 3-6.7 6.7-6.7h50.5c3.7 0 6.7 3 6.7 6.7v50.5zM160 281.3c0 3.7-3 6.7-6.7 6.7h-50.5c-3.7 0-6.7-3-6.7-6.7v-50.5c0-3.7 3-6.7 6.7-6.7h50.5c3.7 0 6.7 3 6.7 6.7v50.5zM288 281.3c0 3.7-3 6.7-6.7 6.7h-50.5c-3.7 0-6.7-3-6.7-6.7v-50.5c0-3.7 3-6.7 6.7-6.7h50.5c3.7 0 6.7 3 6.7 6.7v50.5zM416 281.3c0 3.7-3 6.7-6.7 6.7h-50.5c-3.7 0-6.7-3-6.7-6.7v-50.5c0-3.7 3-6.7 6.7-6.7h50.5c3.7 0 6.7 3 6.7 6.7v50.5zM160 409.3c0 3.7-3 6.7-6.7 6.7h-50.5c-3.7 0-6.7-3-6.7-6.7v-50.5c0-3.7 3-6.7 6.7-6.7h50.5c3.7 0 6.7 3 6.7 6.7v50.5zM288 409.3c0 3.7-3 6.7-6.7 6.7h-50.5c-3.7 0-6.7-3-6.7-6.7v-50.5c0-3.7 3-6.7 6.7-6.7h50.5c3.7 0 6.7 3 6.7 6.7v50.5zM416 409.3c0 3.7-3 6.7-6.7 6.7h-50.5c-3.7 0-6.7-3-6.7-6.7v-50.5c0-3.7 3-6.7 6.7-6.7h50.5c3.7 0 6.7 3 6.7 6.7v50.5z"/></symbol><symbol id="icon-help-buoy" viewBox="0 0 512 512"><path d="M256 32C132.3 32 32 132.3 32 256s100.3 224 224 224 224-100.3 224-224S379.7 32 256 32zm178.3 152.5l-61.5 18.9c-6.3-14-15.1-26.8-26.3-38-11.2-11.2-24-20-38-26.3l18.9-61.5c23.8 9.5 45.6 23.9 64.3 42.5 18.7 18.8 33.1 40.6 42.6 64.4zM256 352c-53 0-96-43-96-96s43-96 96-96 96 43 96 96-43 96-96 96zM120.2 120.2c18.7-18.7 40.5-33 64.3-42.5l18.9 61.5c-14 6.3-26.8 15.1-38 26.3-11.2 11.2-20 24-26.3 38l-61.5-18.9c9.6-23.9 24-45.7 42.6-64.4zM77.7 327.5l61.5-18.9c6.3 14 15.1 26.8 26.3 38s24 20 38 26.3l-18.9 61.5c-23.8-9.5-45.6-23.9-64.3-42.5-18.7-18.8-33.1-40.6-42.6-64.4zm314.1 64.3c-18.7 18.7-40.5 33-64.3 42.5l-18.9-61.5c14-6.3 26.8-15.1 38-26.3s20-24 26.3-38l61.5 18.9c-9.6 23.9-24 45.7-42.6 64.4z"/></symbol><symbol id="icon-help-circled" viewBox="0 0 512 512"><path d="M256 32C132.3 32 32 132.3 32 256s100.3 224 224 224 224-100.3 224-224S379.7 32 256 32zm20.2 326.7c-.5 17.8-13.7 28.8-30.8 28.3-16.4-.5-29.3-12.2-28.8-30.1.5-17.8 14.1-29.1 30.5-28.6 17.2.5 29.7 12.6 29.1 30.4zm48.7-127.3c-4.2 5.9-13.6 13.5-25.4 22.7l-13.1 9c-6.4 4.9-10.4 10.7-12.5 17.3-1.1 3.5-1.9 12.6-2.1 18.7-.1 1.2-.8 3.9-4.5 3.9h-39.1c-4.1 0-4.6-2.4-4.5-3.6.6-16.6 3-30.3 9.9-41.3 9.3-14.8 35.5-30.4 35.5-30.4 4-3 7.1-6.2 9.5-9.7 4.4-6 8-12.7 8-19.9 0-8.3-2-16.2-7.3-22.8-6.2-7.7-12.9-11.4-25.8-11.4-12.7 0-20.1 6.4-25.4 14.8-5.3 8.4-4.4 18.3-4.4 27.3H175c0-34 8.9-55.7 27.7-68.5 12.7-8.7 28.9-12.5 47.8-12.5 24.8 0 44.5 4.6 61.9 17.8 16.1 12.2 24.6 29.4 24.6 52.6 0 14.3-5 26.3-12.1 36z"/></symbol><symbol id="icon-help" viewBox="0 0 512 512"><path d="M345.1 77.1C317.6 56.2 286.6 49 247.3 49c-29.8 0-55.3 6.1-75.5 19.7C142 89 128 123.1 128 177h76.8c0-14.4-1.4-29.9 7-43.2 8.4-13.3 20.1-23.5 40.2-23.5 20.4 0 30.9 5.9 40.8 18.1 8.4 10.4 11.6 22.8 11.6 36 0 11.4-5.8 21.9-12.7 31.4-3.8 5.6-8.8 10.6-15.1 15.4 0 0-41.5 24.7-56.1 48.1-10.9 17.4-14.8 39.2-15.7 65.3-.1 1.9.6 5.8 7.2 5.8h61.8c5.8 0 7-4.4 7.1-6.2.4-9.5 1.6-24.1 3.3-29.6 3.3-10.4 9.7-19.5 19.7-27.3l20.7-14.3c18.7-14.6 33.6-26.5 40.2-35.9 11.3-15.4 19.2-34.4 19.2-56.9 0-36.7-13.5-63.8-38.9-83.1zM242 370.2c-25.9-.8-47.3 17.2-48.2 45.3-.8 28.2 19.5 46.7 45.5 47.5 27 .8 47.9-16.6 48.7-44.7.8-28.1-19-47.3-46-48.1z"/></symbol><symbol id="icon-home" viewBox="0 0 512 512"><path d="M448 288L256 64 64 288h48v160h96V320h96v128h96V288z"/></symbol><symbol id="icon-image" viewBox="0 0 512 512"><path d="M368 224c26.5 0 48-21.5 48-48s-21.5-48-48-48-48 21.5-48 48 21.5 48 48 48zM452 64H60c-15.6 0-28 12.7-28 28.3v327.4c0 15.6 12.4 28.3 28 28.3h392c15.6 0 28-12.7 28-28.3V92.3c0-15.6-12.4-28.3-28-28.3zM348.9 261.7c-3-3.5-7.6-6.2-12.8-6.2-5.1 0-8.7 2.4-12.8 5.7L304.6 277c-3.9 2.8-7 4.7-11.5 4.7-4.3 0-8.2-1.6-11-4.1-1-.9-2.8-2.6-4.3-4.1L224 215.3c-4-4.6-10-7.5-16.7-7.5-6.7 0-12.9 3.3-16.8 7.8L64 368.2V107.7c1-6.8 6.3-11.7 13.1-11.7h357.7c6.9 0 12.5 5.1 12.9 12l.3 260.4-99.1-106.7z"/></symbol><symbol id="icon-images" viewBox="0 0 512 512"><path d="M457.6 140.2l-82.5-4-4.8-53.8c-1-11.3-11.1-19.2-22.9-18.3l-296 24.3c-11.8 1-20.3 10.5-19.4 21.7l21.2 235.8c1 11.3 11.2 19.2 22.9 18.3l15-1.2-2.4 45.8c-.6 12.6 9.2 22.8 22.4 23.5L441.3 448c13.2.6 24.1-8.6 24.8-21.2L480 163.5c.6-12.5-9.3-22.7-22.4-23.3zm-355 5.3l-7.1 134.8L78.1 305l-16-178v-1c.5-5 4.3-9 9.5-9.4l261-21.4c5.2-.4 9.7 3 10.5 7.9 0 .2.3.2.3.4 0 .1.3.2.3.4l2.7 30.8-219-10.5c-13.2-.4-24.2 8.8-24.8 21.3zm334.1 236.9L390 327.1l-27.5-32.7c-2.4-2.9-6.3-5.3-10.6-5.5-4.3-.2-7.5 1.5-11.1 4.1l-16.4 11.9c-3.5 2.1-6.2 3.5-9.9 3.3-3.6-.2-6.8-1.6-9.1-3.8-.8-.8-2.3-2.2-3.5-3.4l-42.8-48.9c-3.1-3.9-8.2-6.4-13.8-6.7-5.7-.3-11.2 2.1-14.8 5.6L129.4 359.8l-6.8 7.4.3-6.8 6.8-128.9 3.3-62.9v-1c1.4-5.4 6.2-9.3 11.9-9l204.2 9.8 28.7 1.4 58.3 2.8c5.8.3 10.3 4.7 10.4 10.2 0 .2.3.3.3.5s.3.3.3.5l-10.4 198.6zM373.2 262.3c19.4 0 35.2-15.8 35.2-35.2s-15.7-35.2-35.2-35.2c-19.4 0-35.2 15.7-35.2 35.2s15.7 35.2 35.2 35.2z"/></symbol><symbol id="icon-information-circled" viewBox="0 0 512 512"><path d="M480 253C478.3 129.3 376.7 30.4 253 32S30.4 135.3 32 259c1.7 123.7 103.3 222.6 227 221 123.7-1.7 222.7-103.3 221-227zM256 111.9c17.7 0 32 14.3 32 32s-14.3 32-32 32-32-14.3-32-32 14.3-32 32-32zM300 395h-88v-11h22V224h-22v-12h66v172h22v11z"/></symbol><symbol id="icon-ios7-cart" viewBox="0 0 512 512"><g><path d="M441 416c0 13.8-11.2 25-25 25s-25-11.2-25-25 11.2-25 25-25 25 11.2 25 25zM153 416c0 13.8-11.2 25-25 25s-25-11.2-25-25 11.2-25 25-25 25 11.2 25 25zM127.9 96l-11.1-32H64v17h41.7l57.5 213.3c-32.4 11.3-59.9 37.9-65.3 73.1C96 379.1 96 384 96 384h352v-16.7H115.3c4.7-31.6 38.8-58.1 74.1-62.5s243.3-34.2 243.3-34.2L448 96H127.9z"/></g></symbol><symbol id="icon-ios7-printer" viewBox="0 0 512 512"><path d="M432.5 112H400V64H112v48H80.5C62.9 112 48 125.8 48 143.3v158.4c0 17.5 14.9 32.3 32.5 32.3H112V208h288v126h32.5c17.6 0 31.5-14.8 31.5-32.3V143.3c0-17.5-13.9-31.3-31.5-31.3zM128 224h256v224H128z"/></symbol><symbol id="icon-levels" viewBox="0 0 512 512"><path d="M127 99.2V80c0-8.8-7.2-16-16-16s-16 7.2-16 16v21.5c-8.5 5.8-14 15.5-14 26.5s5.5 20.7 14 26.5V432c0 8.8 7.2 16 16 16s16-7.2 16-16V156.8c10.7-5.2 18-16.1 18-28.8s-7.3-23.6-18-28.8zM223 292.9V80c0-8.8-7.2-16-16-16s-16 7.2-16 16v211.7c-10.1 5.4-17 16-17 28.3s6.9 22.9 17 28.3V432c0 8.8 7.2 16 16 16s16-7.2 16-16v-84.9c9-5.7 15-15.7 15-27.1s-6-21.4-15-27.1zM319 163.3V80c0-8.8-7.2-16-16-16s-16 7.2-16 16v83.3c-9.6 5.5-16 15.9-16 27.7s6.4 22.2 16 27.7V432c0 8.8 7.2 16 16 16s16-7.2 16-16V218.7c9.6-5.5 16-15.9 16-27.7s-6.4-22.2-16-27.7zM431 383c0-11.8-6.4-22.2-16-27.7V80c0-8.8-7.2-16-16-16s-16 7.2-16 16v275.3c-9.6 5.5-16 15.9-16 27.7s6.4 22.2 16 27.7V432c0 8.8 7.2 16 16 16s16-7.2 16-16v-21.3c9.6-5.5 16-15.9 16-27.7z"/></symbol><symbol id="icon-link" viewBox="0 0 512 512"><path d="M256.5 208h-.5.5zM368.5 160H320s26 17 31.6 48h16.9c17.6 0 31.5 13.9 31.5 31.5v32c0 17.6-13.9 32.5-31.5 32.5h-112c-17.6 0-32.5-14.9-32.5-32.5V240h-48v31.5c0 11.5 2.5 22.5 6.9 32.5 12.6 28.2 40.9 48 73.6 48h112c44.2 0 79.5-36.3 79.5-80.5v-32c0-44.2-35.3-79.5-79.5-79.5zM329.6 208c-12.1-28.3-40.1-48-73.1-48h-112c-44.2 0-80.5 35.3-80.5 79.5v32c0 44.2 36.3 80.5 80.5 80.5H192s-25.8-17-32.1-48h-15.4c-17.6 0-32.5-14.9-32.5-32.5v-32c0-17.6 14.9-31.5 32.5-31.5h112c17.6 0 31.5 13.9 31.5 31.5V272h48v-32.5c0-11.2-2.3-21.9-6.4-31.5z"/></symbol><symbol id="icon-locked" viewBox="0 0 512 512"><path d="M86.4 480h339.2c12.3 0 22.4-9.9 22.4-22.1V246c0-12.2-10-22-22.4-22H404v-30.9c0-41.5-16.2-87.6-42.6-115.4-26.3-27.8-64-45.7-105.3-45.7h-.2c-41.3 0-79 17.9-105.3 45.6C124.2 105.4 108 151.5 108 193v31H86.4C74 224 64 233.9 64 246v211.9c0 12.2 10 22.1 22.4 22.1zM161 193.1c0-27.3 9.9-61.1 28.1-80.3v-.3C206.7 93.9 231 83 255.9 83h.2c24.9 0 49.2 10.9 66.8 29.5v.2l-.1.1c18.3 19.2 28.1 53 28.1 80.3V224H161v-30.9z"/></symbol><symbol id="icon-log-in" viewBox="0 0 512 512"><path d="M224 288l64-64-64-64v48H72c-4.4 0-8 3.6-8 8v16c0 4.4 3.6 8 8 8h152v48zM440 64H168c-4.4 0-8 3.6-8 8v104h32V96h176l-48 32v224H192v-80h-32v104c0 4.4 3.6 8 8 8h152v64l118.8-59.4c9.2-4.6 9.2-6.1 9.2-14.6V72c0-4.4-3.6-8-8-8z"/></symbol><symbol id="icon-log-out" viewBox="0 0 512 512"><path d="M384 160l64 64-64 64v-48H232c-4.4 0-8-3.6-8-8v-16c0-4.4 3.6-8 8-8h152v-48zM352 176V72c0-4.4-3.6-8-8-8H72c-4.4 0-8 3.6-8 8v302c0 8.5 0 10 9.2 14.6L192 448v-64h152c4.4 0 8-3.6 8-8V272h-32v80H192V128l-48-32h176v80h32z"/></symbol><symbol id="icon-loop" viewBox="0 0 512 512"><path d="M273.4 300.5l-.3 58c48.9-8.2 86.3-51 86.3-102.5 0-15.9-3.6-31-10-44.5-2.8-5.8-6-11.3-9.8-16.5l47.1-43.5c1.1 1.3 2.1 2.7 3.1 4 20.9 28 33.2 62.8 33.2 100.5v3.7c-1.5 71.5-47.6 132-111.4 154.6-12.3 4.3-25.2 7.3-38.5 8.7l-.1 57-76.2-67-26.2-23 44.4-38.7 58.4-50.8zM89 252.3c1.6-72.1 48.3-133 112.9-155.2 11.7-4 24-6.8 36.8-8.1l.1-57 76.1 66.9 26.2 23.1-44.3 38.6-58.4 50.9.2-57.9c-48.8 8.3-86 51.1-86 102.4 0 16 3.6 31.1 10.1 44.7 2.7 5.8 6 11.2 9.7 16.3l-47 43.6c-1.3-1.6-2.6-3.3-3.8-5C101.1 327.7 89 293.3 89 256v-3.7z"/></symbol><symbol id="icon-minus-circled" viewBox="0 0 512 512"><path d="M256 32C132.3 32 32 132.3 32 256s100.3 224 224 224 224-100.3 224-224S379.7 32 256 32zm128 240H128v-32h256v32z"/></symbol><symbol id="icon-minus" viewBox="0 0 512 512"><path d="M64 224h384v64H64z"/></symbol><symbol id="icon-monitor" viewBox="0 0 512 512"><path d="M468.7 64H43.3c-6 0-11.3 5-11.3 11.1v265.7c0 6.2 5.2 11.1 11.3 11.1h425.4c6 0 11.3-5 11.3-11.1V75.1c0-6.1-5.2-11.1-11.3-11.1zM448 320H64V96h384v224zM302.5 448c28-.5 41.5-3.9 29-12.5-12.5-8.7-28.5-15.3-29-22.5-.3-3.7-1.7-45-1.7-45h-89.6s-1.5 41.3-1.7 45c-.5 7.1-16.5 13.8-29 22.5s1 12 29 12.5h93z"/></symbol><symbol id="icon-network" viewBox="0 0 512 512"><path d="M448 96c0-35.29-28.71-64-64-64s-64 28.71-64 64c0 23.637 12.89 44.307 32 55.39v52.833l-96 48-96-48V151.39c19.11-11.083 32-31.753 32-55.39 0-35.29-28.71-64-64-64S64 60.71 64 96c0 23.637 12.89 44.307 32 55.39v92.388l128 64v52.832c-19.11 11.084-32 31.754-32 55.39 0 35.29 28.71 64 64 64s64-28.71 64-64c0-23.636-12.89-44.306-32-55.39v-52.832l128-64V151.39c19.11-11.083 32-31.753 32-55.39zM128 64c17.673 0 32 14.327 32 32s-14.327 32-32 32-32-14.327-32-32 14.327-32 32-32zm128 384c-17.673 0-32-14.327-32-32s14.327-32 32-32 32 14.327 32 32-14.327 32-32 32zm128-320c-17.673 0-32-14.327-32-32s14.327-32 32-32 32 14.327 32 32-14.327 32-32 32z"/></symbol><symbol id="icon-paperclip" viewBox="0 0 512 512"><path d="M324.6 154.9c-6.3-.1-11.4 5.1-11.4 11.6l-.2 194.8c-.1 43.8-29.7 63.4-57.2 63.2-27.5-.3-57.1-20.4-57-64.1 0-33.5.2-167.7.3-234.8 0-15.4 6-27.4 16.8-33.7 10.6-6.2 24.4-6.1 35 .3 10.8 6.5 16.7 18.6 16.7 34l-.3 224.5c0 7.3-1.7 13.3-4.7 17.1-1.9 2.4-4.4 3.8-6.9 3.8-5.6-.1-11.4-7.3-11.3-20.8 0 0 .2-166.3.3-172.7 0-6.5-5.1-11.8-11.4-11.8-6.3 0-11.4 5.2-11.4 11.7l-.3 172.7c0 29 17.2 44.3 34.2 44.5 9.4.1 18.3-4.4 24.6-12.4 6.3-8 9.7-19 9.7-31.8l.3-224.5c0-23.8-10.2-43.6-28.1-54.3-17.5-10.6-40.3-10.8-57.9-.5-17.9 10.5-28.2 30.1-28.3 53.9-.1 67-.2 201.2-.3 234.8-.1 57.2 40.1 87.4 79.8 87.8 20.5.2 41.1-7.7 56.3-23.1 14.2-14.5 23.7-35.7 23.7-63.4l.1-194.9c.3-6.6-4.8-11.9-11.1-11.9z"/></symbol><symbol id="icon-person-add" viewBox="0 0 512 512"><path d="M429 328v-51h51v-42h-51v-51h-42v51h-51v42h51v51zM416 448s0-26.4-2.2-40.2c-1.8-10.9-16.9-25.3-81.1-48.9-63.2-23.2-59.3-11.9-59.3-54.6 0-27.7 14.1-11.6 23.1-64.2 3.5-20.7 6.3-6.9 13.9-40.1 4-17.4-2.7-18.7-1.9-27 .8-8.3 1.6-15.7 3.1-32.7 1.8-21-17.7-76.3-87.6-76.3-69.9 0-89.4 55.3-87.5 76.4 1.5 16.9 2.3 24.4 3.1 32.7.8 8.3-5.9 9.6-1.9 27 7.6 33.1 10.4 19.3 13.9 40.1 9 52.6 23.1 36.5 23.1 64.2 0 42.8 3.9 31.5-59.3 54.6-64.2 23.5-79.4 38-81.1 48.9C32 421.6 32 448 32 448h384z"/></symbol><symbol id="icon-person-group" viewBox="0 0 512 512"><path d="M425.3 324.8c-41.4-15.7-38.9-9.4-38.9-38.5 0-18.8 9.3-11.9 15.2-47.7 2.3-14.1 4.2-4.7 9.1-27.3 2.6-11.8-1.8-12.7-1.2-18.3.5-5.6 1-10.7 2-22.2 1.2-14.4-11.6-52-57.4-52s-58.6 37.6-57.4 52c.9 11.6 1.5 16.6 2 22.2.5 5.6-3.8 6.5-1.2 18.3 4.9 22.6 6.8 13.1 9.1 27.3 5.9 35.8 15.1 29 15.1 47.7 0 13.4 3.1 19-14.9 27.5 5.4 1.9 11.7 4.2 19.3 7.1 54.4 20.7 53.1 40.8 54.5 50.3 1 6.5 1.5 58.3 1.7 76.8H480s0-80.5-1.5-89.9c-1.1-7.4-11-17.2-53.2-33.3zM357 448s0-14.1-.2-30.4c-.2-18.6-.7-40-1.7-46.4-1.5-9.5-14.3-22.2-68.6-42.9-7.5-2.8-13.8-5.1-19.3-7.1-33.3-11.8-30.9-15.7-30.9-48 0-24.3 12-8.5 19.6-54.6 3-18.2 5.4-6.1 11.7-35.2 3.4-15.2-2.3-16.4-1.6-23.7.7-7.3 1.4-13.8 2.6-28.7 1.6-18.5-14.9-67.1-74.1-67.1-59.2 0-75.6 48.5-74.1 67.1 1.2 14.9 1.9 21.4 2.7 28.7.7 7.3-5 8.4-1.6 23.7 6.4 29.1 8.8 17 11.8 35.2 7.6 46.1 19.5 30.3 19.5 54.6 0 37.6 3.3 34.8-50.2 55.1C48.3 349 35.5 361.7 34 371.2c-2 12.1-2 76.8-2 76.8h325z"/></symbol><symbol id="icon-person" viewBox="0 0 512 512"><path d="M448 448s0-26.4-2.2-40.2c-1.8-10.9-16.9-25.3-81.1-48.9-63.2-23.2-59.3-11.9-59.3-54.6 0-27.7 14.1-11.6 23.1-64.2 3.5-20.7 6.3-6.9 13.9-40.1 4-17.4-2.7-18.7-1.9-27 .8-8.3 1.6-15.7 3.1-32.7 1.8-21-17.7-76.3-87.6-76.3-69.9 0-89.4 55.3-87.5 76.4 1.5 16.9 2.3 24.4 3.1 32.7.8 8.3-5.9 9.6-1.9 27 7.6 33.1 10.4 19.3 13.9 40.1 9 52.6 23.1 36.5 23.1 64.2 0 42.8 3.9 31.5-59.3 54.6-64.2 23.5-79.4 38-81.1 48.9C64 421.6 64 448 64 448h384z"/></symbol><symbol id="icon-pie-graph" viewBox="0 0 512 512"><path d="M32.6 256H256V32.6c-5-.4-10.6-.6-16-.6-114.9 0-208 93.1-208 208 0 5.4.2 11 .6 16zM109.8 402.2C147.9 449.6 206.4 480 272 480c114.9 0 208-93.1 208-208 0-65.6-30.4-124.1-77.8-162.2C370.5 84.3 331 67.9 288 64.6V288H64.6c3.3 43 19.7 82.5 45.2 114.2z"/></symbol><symbol id="icon-plus-circled" viewBox="0 0 512 512"><path d="M256 32C132.3 32 32 132.3 32 256s100.3 224 224 224 224-100.3 224-224S379.7 32 256 32zm128 240H272v112h-32V272H128v-32h112V128h32v112h112v32z"/></symbol><symbol id="icon-plus" viewBox="0 0 512 512"><path d="M448 224H288V64h-64v160H64v64h160v160h64V288h160z"/></symbol><symbol id="icon-refresh" viewBox="0 0 512 512"><path d="M416 352l96-111.9h-64.7c-2.3-27.9-10.5-54-23.5-77.3-27.4-49.2-75.8-85.1-133-95.6-.7-.1-1.5-.3-2.2-.4-.5-.1-.9-.2-1.4-.2-10.1-1.7-20.6-2.6-31.2-2.6h-.4c-90.9.2-167 63.6-186.7 148.6v.1c-.3 1.1-.5 2.2-.7 3.3-.1.5-.2.9-.3 1.4-.1.7-.3 1.4-.4 2.1-.2.9-.3 1.7-.5 2.6-.1.4-.1.7-.2 1.1l-.6 3.6v.2c-1 6.3-1.6 12.7-1.9 19.1v.8c-.1 1.4-.1 2.7-.2 4.1 0 1.6-.1 3.3-.1 5 0 1.7 0 3.3.1 5 0 1.4.1 2.7.2 4.1v.9c.3 6.5 1 12.9 1.9 19.1v.2l.6 3.6c.1.4.1.7.2 1.1.2.9.3 1.8.5 2.6.1.7.3 1.4.4 2.1.1.5.2 1 .3 1.4.2 1.1.5 2.2.7 3.2v.1C88.6 384.4 165 447.8 256 448c42.9-.1 83.1-14.2 116.9-40.7l7.5-5.9-43.2-46.2-6.2 4.6c-22.1 16.3-47.5 24.2-75 24.2-70.6 0-128-57-128-128s57.4-128 128-128c66.4 0 122.8 46.6 129.5 112H312l104 112z"/></symbol><symbol id="icon-search" viewBox="0 0 512 512"><path d="M445 386.7l-84.8-85.9c13.8-24.1 21-50.9 21-77.9C381.2 135.3 310 64 222.6 64 135.2 64 64 135.3 64 222.9c0 87.6 71.2 158.9 158.6 158.9 27.9 0 55.5-7.7 80.1-22.4l84.4 85.6c1.9 1.9 4.6 3.1 7.3 3.1s5.4-1.1 7.3-3.1l43.3-43.8c4-4.1 4-10.5 0-14.5zM222.6 125.9c53.4 0 96.8 43.5 96.8 97s-43.4 97-96.8 97-96.8-43.5-96.8-97 43.4-97 96.8-97z"/></symbol><symbol id="icon-settings" viewBox="0 0 512 512"><path d="M450 138.3l-47.7 48.5-2.7 2.8-1.6 1.7c-1.1.8-2.4 1.2-3.9 1.2-1.6 0-3.1-.6-4.3-1.6l-.9-.9-2.7-2.7-41.3-42.1-2.2-2.2-1.7-1.7c-1-1.5-1.6-3.4-1.6-5.3 0-1.7.6-3.2 1.6-4.4l.7-.8 2.6-2.6 47.9-48.7c-5.1-10.1-24.7-14.9-35.1-14.1-17.1 1.3-34.7 7-52.8 25.5-.7.8-1.5 1.6-2.2 2.3-24.6 26.8-29.5 62.8-19.5 95.8.7 1.4 1.3 3.1 1.6 4.6 1.1 5.5-.4 10.2-4 13.5l-37.9 36.4c-11.8-12-13.5-13.6-13.5-13.6-2-2-6-3.3-9.5-1.2l-5.9 3.6c-22.7-23.1-32.3-32.4-35.4-43.6-3.2-11.7-.3-27.3 2.7-33.1 2.5-4.6 10.3-8.9 16.9-9.4l8.6 8.8c2 2 5.1 2 7.1 0l30.9-31.4c2-2 2-5.3 0-7.3l-49.9-50.7c-2-2-5.2-2-7.1 0L156.3 97c-2 2-2 5.3 0 7.3l3.3 3.4c0 4.9-.7 12.5-4.7 16.6-6.2 6.3-18.5-1-26.5 4.7-7.9 5.6-17.9 14.6-24.3 21-6.3 6.4-30.5 31.8-47.8 74.6-17.3 42.8-4 82.5 5.4 92.9 5 5.5 14.1 11.1 12.5.7-1.6-10.5-4.2-46.9 7.7-61.8 11.9-14.9 27.6-27.1 48-28.1 19.6-1 30.9 5.7 56.3 31.5l-2.8 5.2c-1.8 3.4-.8 7.7 1.2 9.7 0 0 1.5 1.6 12.1 12.4l-97.2 93.2c-16.2 14.3-15.3 40.5-.3 56 15.2 15.2 41.1 16.3 55.2-.2l91.4-98.6c49.1 52.3 93.3 107.4 93.3 107.4 2 2 5.2 2 7.1 0l49.9-50.7c2-2 2-5.2 0-7.3 0 0-55.2-45.7-107-96.2l35.5-38.3c3.3-3.7 7.9-5.2 13.3-4.1 1.5.3 3.1 1 4.5 1.7 32.4 10.2 67.8 5.2 94-19.8.8-.7 1.5-1.5 2.3-2.3 18.1-18.4 23.7-36.4 25-53.8 1-10.6-3.5-30.3-13.7-35.8z"/></symbol><symbol id="icon-share" viewBox="0 0 512 512"><path d="M352 377.9H102.4V198.2h57.5s14.1-19.7 42.7-38.2H83.2c-10.6 0-19.2 8.5-19.2 19.1V397c0 10.5 8.6 19.1 19.2 19.1h288c10.6 0 19.2-8.5 19.2-19.1V288L352 319.4v58.5zM320 224v63.9l128-95.5L320 96v59.7C165.2 155.7 160 320 160 320c43.8-71.5 76-96 160-96z"/></symbol><symbol id="icon-social-rss" viewBox="0 0 512 512"><path d="M119.9 336.1c-30.8 0-55.9 25.1-55.9 55.8 0 30.8 25.1 55.6 55.9 55.6 30.9 0 55.9-24.9 55.9-55.6 0-30.7-25-55.8-55.9-55.8zM64 192v79.9c48 0 94.1 14.2 128 48.1 33.9 33.9 48 79.9 48 128h80c0-139.9-116-256-256-256zM64 64v79.9c171 0 303.9 133 303.9 304.1H448C448 236.3 276 64 64 64z"/></symbol><symbol id="icon-social-youtube" viewBox="0 0 512 512"><path d="M508.6 148.8c0-45-33.1-81.2-74-81.2C379.2 65 322.7 64 265 64h-18c-57.6 0-114.2 1-169.6 3.6C36.6 67.6 3.5 104 3.5 149 1 184.6-.1 220.2 0 255.8c-.1 35.6 1 71.2 3.4 106.9 0 45 33.1 81.5 73.9 81.5 58.2 2.7 117.9 3.9 178.6 3.8 60.8.2 120.3-1 178.6-3.8 40.9 0 74-36.5 74-81.5 2.4-35.7 3.5-71.3 3.4-107 .2-35.6-.9-71.2-3.3-106.9zM207 353.9V157.4l145 98.2-145 98.3z"/></symbol><symbol id="icon-speedometer" viewBox="0 0 512 512"><path d="M344 256l-84.4 64.2c-1.2-.1-2.4-.2-3.6-.2-17.7 0-32 14.3-32 32s14.3 32 32 32 32-14.3 32-32c0-1.2-.1-2.4-.2-3.6L352 264l-8-8zM256 96C132.3 96 32 196.3 32 320c0 34.4 7.8 66.9 21.6 96h36.1c-15.4-26.6-24.2-56.6-25.5-88H96v-16H64.2c1.2-28.8 8.7-56.5 21.8-81.4l27.5 15.9 8-13.9L94 216.8c7.4-11.6 16.2-22.6 26.2-32.6 10.2-10.1 21.3-19 33.1-26.5l15.8 27.3 13.9-8-15.8-27.3c24.8-13 52.2-20.3 80.8-21.5V160h16v-31.8c28.6 1.2 56 8.6 80.8 21.5L329.1 177l13.9 8 15.8-27.3c11.8 7.5 22.9 16.4 33.1 26.5 10 10 18.7 20.9 26.2 32.6l-27.4 15.8 8 13.9 27.5-15.9c13.1 24.9 20.6 52.6 21.8 81.4h-32v16h31.8c-1.3 31.4-10.1 61.4-25.5 88h36.1c13.8-29.1 21.6-61.6 21.6-96 0-123.7-100.3-224-224-224z"/></symbol><symbol id="icon-star" viewBox="0 0 512 512"><path d="M448 208H301L256 64l-45 144H64l119.1 89.3L136 448l120-96 120 96-47.1-150.7z"/></symbol><symbol id="icon-stats-bars" viewBox="0 0 512 512"><path d="M176 96h64v320h-64zM80 320h64v96H80zM272 256h64v160h-64zM368 192h64v224h-64z"/></symbol><symbol id="icon-telephone" viewBox="0 0 512 512"><path d="M415.9 335.5c-14.6-15-56.1-43.1-83.3-43.1-6.3 0-11.8 1.4-16.3 4.3-13.3 8.5-23.9 15.1-29 15.1-2.8 0-5.8-2.5-12.4-8.2l-1.1-1c-18.3-15.9-22.2-20-29.3-27.4l-1.8-1.9c-1.3-1.3-2.4-2.5-3.5-3.6-6.2-6.4-10.7-11-26.6-29l-.7-.8c-7.6-8.6-12.6-14.2-12.9-18.3-.3-4 3.2-10.5 12.1-22.6 10.8-14.6 11.2-32.6 1.3-53.5-7.9-16.5-20.8-32.3-32.2-46.2l-1-1.2c-9.8-12-21.2-18-33.9-18-14.1 0-25.8 7.6-32 11.6-.5.3-1 .7-1.5 1-13.9 8.8-24 20.9-27.8 33.2-5.7 18.5-9.5 42.5 17.8 92.4 23.6 43.2 45 72.2 79 107.1 32 32.8 46.2 43.4 78 66.4 35.4 25.6 69.4 40.3 93.2 40.3 22.1 0 39.5 0 64.3-29.9 26-31.4 15.2-50.6-.4-66.7z"/></symbol><symbol id="icon-trash-b" viewBox="0 0 512 512"><path d="M413.7 133.4c-2.4-9-4-14-4-14-2.6-9.3-9.2-9.3-19-10.9l-53.1-6.7c-6.6-1.1-6.6-1.1-9.2-6.8-8.7-19.6-11.4-31-20.9-31h-103c-9.5 0-12.1 11.4-20.8 31.1-2.6 5.6-2.6 5.6-9.2 6.8l-53.2 6.7c-9.7 1.6-16.7 2.5-19.3 11.8 0 0-1.2 4.1-3.7 13-3.2 11.9-4.5 10.6 6.5 10.6h302.4c11 .1 9.8 1.3 6.5-10.6zM379.4 176H132.6c-16.6 0-17.4 2.2-16.4 14.7l18.7 242.6c1.6 12.3 2.8 14.8 17.5 14.8h207.2c14.7 0 15.9-2.5 17.5-14.8l18.7-242.6c1-12.6.2-14.7-16.4-14.7z"/></symbol><symbol id="icon-unlocked" viewBox="0 0 512 512"><path d="M86.4 480h339.2c12.3 0 22.4-9.9 22.4-22.1V246c0-12.2-10-22-22.4-22H161v-30.9c0-27.3 9.9-61.1 28.1-80.3v-.3C206.7 93.9 231 83 255.9 83h.2c24.9 0 49.2 10.9 66.8 29.5V112.8c11.3 11.9 19.4 29.3 24 47.3h53.4c-5.9-31.3-19.7-61.8-39.2-82.4-26.2-27.8-63.7-45.7-105-45.7h-.2c-41.3 0-79 17.9-105.3 45.6C124.2 105.4 108 151.5 108 193v31H86.4C74 224 64 233.9 64 246v211.9c0 12.2 10 22.1 22.4 22.1z"/></symbol><symbol id="icon-upload" viewBox="0 0 512 512"><path d="M398.1 233.2c0-1.2.2-2.4.2-3.6 0-65-51.8-117.6-115.7-117.6-46.1 0-85.7 27.4-104.3 67-8.1-4.1-17.2-6.5-26.8-6.5-29.5 0-54.1 21.9-58.8 50.5C57.3 235.2 32 269.1 32 309c0 50.2 40.1 91 89.5 91H224v-80h-48.2l80.2-83.7 80.2 83.6H288v80h110.3c45.2 0 81.7-37.5 81.7-83.4 0-45.9-36.7-83.2-81.9-83.3z"/></symbol><symbol id="icon-wand" viewBox="0 0 512 512"><path d="M272 191.997l48 48-48 48-48-48zM208.007 256l48 48L80.01 480l-48-48.002zM256 32h32v64h-32zM385.13 149.497l-22.626-22.627 45.254-45.254 22.627 22.628zM113.606 104.234l22.627-22.627 45.255 45.254-22.628 22.628zM362.505 353.126l22.627-22.627 45.255 45.253-22.628 22.627zM416 224h64v32h-64z"/></symbol><symbol id="icon-wifi" viewBox="0 0 512 512"><path d="M256.1 96c-79.9 0-155.7 29.9-213.9 84.1L32 189.6l9.9 9.8 32.3 32 9.3 9.2 9.6-8.8c44.5-40.9 102.3-63.5 162.8-63.5 60.5 0 118.4 22.6 162.8 63.5l9.6 8.8 9.3-9.2 32.3-32 9.9-9.8-10.2-9.5C411.6 125.9 335.7 96 256.1 96zM397.4 256.4c-38.8-35.1-88.9-54.4-141.1-54.4h-8.9l-.1.2c-49.2 2-96 21.1-132.6 54.2l-10.5 9.5 10.1 10 32.7 32.4 9.1 9 9.6-8.4c25.3-22.2 57.4-34.5 90.3-34.5 33.1 0 65.2 12.3 90.5 34.5l9.6 8.4 9.1-9 32.7-32.4 10.1-10-10.6-9.5zM256.2 416l9.6-9.5 52.8-52.2 10.6-10.5-11.6-9.5c-15.4-11.4-32.4-20-61.5-20-29 0-44.9 9.4-61.5 20l-11.5 9.5 10.6 10.5 52.8 52.2 9.7 9.5z"/></symbol><symbol id="icon-wrench" viewBox="0 0 512 512"><path d="M461.9 114.9l-56.5 56.7-55.1-10-9.9-55.1 56.5-56.7c-12.7-12.7-30.8-18.5-44.2-17.8-13.5.7-42.3 8.3-64.6 32-21.6 22.8-44.3 65.3-24.2 112.5 2.4 5.7 5.1 13.2-2.9 21.2-8.1 8-215 202.8-215 202.8-19.4 16.7-18 47.6-.1 65.6 18.2 17.9 48.9 19 65.6-.3 0 0 193.2-205.8 202.7-215.1 8.5-8.3 16.1-5.5 21.2-2.9 35.6 18.4 86.3 2.4 112.6-23.9 26.3-26.3 31.1-51.7 31.9-64.7.8-12.9-3.7-30-18-44.3zM91.3 443.2c-6.3 6.2-16.5 6.2-22.7 0-6.2-6.3-6.2-16.5 0-22.7 6.3-6.2 16.5-6.2 22.7 0 6.2 6.3 6.2 16.5 0 22.7z"/></symbol></svg>