<?xml version="1.0" encoding="UTF-8" standalone="no"?>
<!-- Created with Inkscape (http://www.inkscape.org/) -->
<svg
   xmlns:dc="http://purl.org/dc/elements/1.1/"
   xmlns:cc="http://creativecommons.org/ns#"
   xmlns:rdf="http://www.w3.org/1999/02/22-rdf-syntax-ns#"
   xmlns:svg="http://www.w3.org/2000/svg"
   xmlns="http://www.w3.org/2000/svg"
   xmlns:sodipodi="http://sodipodi.sourceforge.net/DTD/sodipodi-0.dtd"
   xmlns:inkscape="http://www.inkscape.org/namespaces/inkscape"
   width="430"
   height="200"
   id="svg2"
   sodipodi:version="0.32"
   inkscape:version="0.46"
   sodipodi:docname="Web-Knife_Logo.svg"
   inkscape:output_extension="org.inkscape.output.svg.inkscape"
   version="1.0">
  <defs
     id="defs4">
    <inkscape:perspective
       sodipodi:type="inkscape:persp3d"
       inkscape:vp_x="0 : 526.18109 : 1"
       inkscape:vp_y="0 : 1000 : 0"
       inkscape:vp_z="744.09448 : 526.18109 : 1"
       inkscape:persp3d-origin="372.04724 : 350.78739 : 1"
       id="perspective10" />
  </defs>
  <sodipodi:namedview
     id="base"
     pagecolor="#ffffff"
     bordercolor="#666666"
     borderopacity="1.0"
     gridtolerance="10000"
     guidetolerance="10"
     objecttolerance="10"
     inkscape:pageopacity="0.0"
     inkscape:pageshadow="2"
     inkscape:zoom="1.1037495"
     inkscape:cx="211.2113"
     inkscape:cy="131.51285"
     inkscape:document-units="px"
     inkscape:current-layer="layer1"
     showgrid="false"
     inkscape:window-width="1131"
     inkscape:window-height="806"
     inkscape:window-x="225"
     inkscape:window-y="0"
     showguides="true"
     inkscape:guide-bbox="true">
    <sodipodi:guide
       orientation="0,1"
       position="1072.7072,355.15305"
       id="guide3208" />
  </sodipodi:namedview>
  <metadata
     id="metadata7">
    <rdf:RDF>
      <cc:Work
         rdf:about="">
        <dc:format>image/svg+xml</dc:format>
        <dc:type
           rdf:resource="http://purl.org/dc/dcmitype/StillImage" />
      </cc:Work>
    </rdf:RDF>
  </metadata>
  <g
     inkscape:label="Layer 1"
     inkscape:groupmode="layer"
     id="layer1">
    <g
       id="g3350">
      <path
         id="path2394"
         d="M 65.09375 105.9375 L 65.09375 186.96875 L 261.34375 186.96875 L 262.46875 186.96875 L 262.46875 186.9375 C 282.4953 186.2959 298.56256 168.43237 298.5625 146.46875 C 298.56255 124.50513 282.49524 106.6103 262.46875 105.96875 L 262.46875 105.9375 L 261.34375 105.9375 L 65.09375 105.9375 z M 254.625 140.125 C 259.30257 140.125 263.09375 143.91618 263.09375 148.59375 C 263.09381 153.27127 259.30256 157.0625 254.625 157.0625 C 249.94744 157.0625 246.125 153.27127 246.125 148.59375 C 246.12501 143.91618 249.94748 140.125 254.625 140.125 z "
         style="fill:#000080" />
      <path
         id="path2428"
         d="M 353.46818,7.464447 C 347.85577,7.410907 332.14286,9.060223 311.5918,24.082797 C 288.35225,41.070769 271.05609,87.613158 266.65287,99.53444 C 273.31513,100.71727 279.5061,103.35321 284.88309,107.14247 L 355.83765,7.722346 C 355.83765,7.722294 355.79391,7.664215 355.67641,7.625634 C 355.52229,7.575034 354.76335,7.476774 353.46818,7.464447 z M 334.0935,28.483227 C 334.33087,28.474149 334.46751,28.477657 334.48035,28.483227 C 334.495,28.489572 334.51259,28.499372 334.51259,28.499372 L 303.74202,61.381513 C 303.74197,61.381513 310.33965,43.348328 320.8117,33.737922 C 325.75619,29.200342 332.43206,28.546413 334.0935,28.483227 z"
         style="fill:#000080;fill-rule:evenodd;stroke:none;stroke-width:0.82468897px;stroke-linecap:butt;stroke-linejoin:miter;stroke-opacity:1" />
      <path
         id="path2430"
         d="M 403.00091,70.8754 C 400.43625,70.895723 397.95697,71.276278 395.7314,72.148803 C 379.83078,78.382432 360.85962,95.352712 353.06523,100.90456 C 345.2708,106.4563 345.27988,106.46548 345.27988,106.46548 C 345.27993,106.46548 327.55143,103.76162 310.27007,108.01288 C 302.22145,109.99292 296.77328,112.10739 293.10368,114.05741 C 296.09201,117.36492 298.62809,121.10183 300.63109,125.17926 C 306.54518,121.95393 313.20001,118.75335 317.79753,117.86143 C 324.35817,116.58875 355.46571,109.09322 317.82971,138.1387 C 312.17037,142.50622 309.15579,144.83835 305.67627,147.51983 C 305.65022,150.44637 305.37772,153.31436 304.87028,156.09498 L 348.26181,123.69634 C 348.26181,123.69634 345.70706,123.32079 354.53201,123.87368 C 367.44275,124.68255 393.27878,129.57283 413.41364,123.11607 C 425.09079,119.37143 427.72704,111.4139 427.72704,111.41395 L 362.3657,109.22181 L 426.77601,77.210022 C 426.77601,77.209971 414.11435,70.787405 403.00091,70.8754 z M 348.43914,109.72146 C 350.6564,109.78583 352.5171,111.7144 352.67839,114.23469 C 352.8504,116.92293 351.02592,119.27064 348.61647,119.4733 C 346.20703,119.67585 344.11407,117.66439 343.942,114.97615 C 343.76988,112.28787 345.57842,109.94021 347.98782,109.7376 C 348.13843,109.72492 348.29131,109.71718 348.43914,109.72146 z"
         style="fill:#000080;fill-rule:evenodd;stroke:none;stroke-width:0.95662391px;stroke-linecap:butt;stroke-linejoin:miter;stroke-opacity:1" />
      <path
         id="rect2382"
         d="M 12.643586,120.6701 L 12.643586,172.67521 L 65.837592,172.67521 L 65.837592,120.6701 L 12.643586,120.6701 z M 31.064967,127.71978 L 40.660311,127.71978 L 40.660311,138.58796 L 31.064967,138.58796 L 31.064967,127.71978 z M 48.451274,141.20362 L 52.297804,141.20362 L 52.297804,152.0718 L 48.451274,152.0718 L 48.451274,141.20362 z M 31.092944,154.85526 L 40.688283,154.85526 L 40.688283,165.72349 L 31.092944,165.72349 L 31.092944,154.85526 z"
         style="fill:#000080;fill-opacity:1" />
      <path
         id="path3240"
         d="M 58.053169,33.00781 C 57.985966,33.157907 59.00116,38.092704 61.921656,44.323135 C 62.104182,44.712563 62.28827,45.101011 62.485811,45.499774 C 65.448112,51.47896 70.122225,58.395712 77.153845,63.35929 C 80.900862,66.004252 89.672683,70.235965 99.671691,74.674667 L 109.45571,70.999604 L 112.98568,80.412923 C 113.00693,80.421898 113.02895,80.436134 113.05015,80.445109 L 124.39772,76.205918 L 128.13725,86.151179 L 139.75886,81.782987 L 143.82077,92.630844 L 155.73246,88.165991 L 159.69771,98.78824 L 160.72931,98.78824 L 172.47981,94.387808 L 174.12392,98.78824 L 256.97402,98.78824 L 58.053169,33.00781 z"
         style="fill:#000080;fill-rule:evenodd;stroke:none;stroke-width:0.5802539px;stroke-linecap:butt;stroke-linejoin:miter;stroke-opacity:1" />
    </g>
  </g>
</svg>
